<?xml version="1.0" encoding="UTF-8"?>
<mxfile host="app.diagrams.net" modified="2025-01-28T15:00:00.000Z" agent="Claude" version="24.0.0">
  <diagram name="帝国の興亡サイクル" id="empire-cycle-diagram">
    <mxGraphModel dx="1422" dy="794" grid="1" gridSize="10" guides="1" tooltips="1" connect="1" arrows="1" fold="1" page="1" pageScale="1" pageWidth="1600" pageHeight="1200" math="0" shadow="0">
      <root>
        <mxCell id="0" />
        <mxCell id="1" parent="0" />
        
        <!-- 上昇期 -->
        <mxCell id="rise-title" value="上昇期" style="text;html=1;strokeColor=none;fillColor=none;align=center;verticalAlign=middle;whiteSpace=wrap;rounded=0;fontSize=18;fontStyle=1;" vertex="1" parent="1">
          <mxGeometry x="50" y="50" width="100" height="30" as="geometry" />
        </mxCell>
        
        <mxCell id="new-order" value="新秩序の確立&#xa;（戦争後の勝利）" style="rounded=1;whiteSpace=wrap;html=1;fillColor=#E8F5E9;strokeColor=#2E7D32;strokeWidth=2;fontSize=12;fontStyle=1;" vertex="1" parent="1">
          <mxGeometry x="50" y="100" width="150" height="60" as="geometry" />
        </mxCell>
        
        <mxCell id="education" value="教育・技術革新&#xa;（人材育成）" style="rounded=1;whiteSpace=wrap;html=1;fillColor=#E8F5E9;strokeColor=#2E7D32;strokeWidth=2;fontSize=12;fontStyle=1;" vertex="1" parent="1">
          <mxGeometry x="250" y="100" width="150" height="60" as="geometry" />
        </mxCell>
        
        <mxCell id="production" value="経済生産力向上&#xa;（競争力獲得）" style="rounded=1;whiteSpace=wrap;html=1;fillColor=#E8F5E9;strokeColor=#2E7D32;strokeWidth=2;fontSize=12;fontStyle=1;" vertex="1" parent="1">
          <mxGeometry x="450" y="100" width="150" height="60" as="geometry" />
        </mxCell>
        
        <mxCell id="trade" value="世界貿易拡大&#xa;（グローバル化）" style="rounded=1;whiteSpace=wrap;html=1;fillColor=#E8F5E9;strokeColor=#2E7D32;strokeWidth=2;fontSize=12;fontStyle=1;" vertex="1" parent="1">
          <mxGeometry x="650" y="100" width="150" height="60" as="geometry" />
        </mxCell>
        
        <mxCell id="military" value="軍事力強化&#xa;（利益保護）" style="rounded=1;whiteSpace=wrap;html=1;fillColor=#E8F5E9;strokeColor=#2E7D32;strokeWidth=2;fontSize=12;fontStyle=1;" vertex="1" parent="1">
          <mxGeometry x="850" y="100" width="150" height="60" as="geometry" />
        </mxCell>
        
        <mxCell id="currency" value="準備通貨確立&#xa;（金融覇権）" style="rounded=1;whiteSpace=wrap;html=1;fillColor=#E8F5E9;strokeColor=#2E7D32;strokeWidth=2;fontSize=12;fontStyle=1;" vertex="1" parent="1">
          <mxGeometry x="1050" y="100" width="150" height="60" as="geometry" />
        </mxCell>
        
        <!-- ピーク期 -->
        <mxCell id="peak-title" value="ピーク期" style="text;html=1;strokeColor=none;fillColor=none;align=center;verticalAlign=middle;whiteSpace=wrap;rounded=0;fontSize=18;fontStyle=1;" vertex="1" parent="1">
          <mxGeometry x="1300" y="200" width="100" height="30" as="geometry" />
        </mxCell>
        
        <mxCell id="prosperity" value="平和と繁栄&#xa;（黄金時代）" style="rounded=1;whiteSpace=wrap;html=1;fillColor=#FFFDE7;strokeColor=#FBC02D;strokeWidth=2;fontSize=12;fontStyle=1;" vertex="1" parent="1">
          <mxGeometry x="1250" y="250" width="150" height="60" as="geometry" />
        </mxCell>
        
        <mxCell id="bubble" value="借入れ増加&#xa;（金融バブル）" style="rounded=1;whiteSpace=wrap;html=1;fillColor=#FFFDE7;strokeColor=#FBC02D;strokeWidth=2;fontSize=12;fontStyle=1;" vertex="1" parent="1">
          <mxGeometry x="1250" y="350" width="150" height="60" as="geometry" />
        </mxCell>
        
        <!-- 衰退期 -->
        <mxCell id="decline-title" value="衰退期" style="text;html=1;strokeColor=none;fillColor=none;align=center;verticalAlign=middle;whiteSpace=wrap;rounded=0;fontSize=18;fontStyle=1;" vertex="1" parent="1">
          <mxGeometry x="1100" y="450" width="100" height="30" as="geometry" />
        </mxCell>
        
        <mxCell id="inequality" value="富の格差拡大&#xa;（内部対立）" style="rounded=1;whiteSpace=wrap;html=1;fillColor=#F3E5F5;strokeColor=#7B1FA2;strokeWidth=2;fontSize=12;fontStyle=1;" vertex="1" parent="1">
          <mxGeometry x="1050" y="500" width="150" height="60" as="geometry" />
        </mxCell>
        
        <mxCell id="competitiveness" value="競争力低下&#xa;（他国の追い上げ）" style="rounded=1;whiteSpace=wrap;html=1;fillColor=#F3E5F5;strokeColor=#7B1FA2;strokeWidth=2;fontSize=12;fontStyle=1;" vertex="1" parent="1">
          <mxGeometry x="850" y="500" width="150" height="60" as="geometry" />
        </mxCell>
        
        <mxCell id="fiscal" value="財政悪化&#xa;（維持コスト増大）" style="rounded=1;whiteSpace=wrap;html=1;fillColor=#F3E5F5;strokeColor=#7B1FA2;strokeWidth=2;fontSize=12;fontStyle=1;" vertex="1" parent="1">
          <mxGeometry x="650" y="500" width="150" height="60" as="geometry" />
        </mxCell>
        
        <mxCell id="printing" value="通貨印刷&#xa;（債務不履行回避）" style="rounded=1;whiteSpace=wrap;html=1;fillColor=#F3E5F5;strokeColor=#7B1FA2;strokeWidth=2;fontSize=12;fontStyle=1;" vertex="1" parent="1">
          <mxGeometry x="450" y="500" width="150" height="60" as="geometry" />
        </mxCell>
        
        <mxCell id="internal-conflict" value="内部紛争激化&#xa;（革命・内戦）" style="rounded=1;whiteSpace=wrap;html=1;fillColor=#F3E5F5;strokeColor=#7B1FA2;strokeWidth=2;fontSize=12;fontStyle=1;" vertex="1" parent="1">
          <mxGeometry x="250" y="500" width="150" height="60" as="geometry" />
        </mxCell>
        
        <mxCell id="external-challenge" value="外部挑戦増加&#xa;（ライバル国台頭）" style="rounded=1;whiteSpace=wrap;html=1;fillColor=#F3E5F5;strokeColor=#7B1FA2;strokeWidth=2;fontSize=12;fontStyle=1;" vertex="1" parent="1">
          <mxGeometry x="50" y="500" width="150" height="60" as="geometry" />
        </mxCell>
        
        <!-- 転換期 -->
        <mxCell id="transition-title" value="転換期" style="text;html=1;strokeColor=none;fillColor=none;align=center;verticalAlign=middle;whiteSpace=wrap;rounded=0;fontSize=18;fontStyle=1;" vertex="1" parent="1">
          <mxGeometry x="50" y="600" width="100" height="30" as="geometry" />
        </mxCell>
        
        <mxCell id="war" value="大規模戦争&#xa;（秩序転換）" style="rounded=1;whiteSpace=wrap;html=1;fillColor=#FCE4EC;strokeColor=#AD1457;strokeWidth=2;fontSize=12;fontStyle=1;" vertex="1" parent="1">
          <mxGeometry x="50" y="650" width="150" height="60" as="geometry" />
        </mxCell>
        
        <!-- 歴史的事例 -->
        <mxCell id="examples-title" value="歴史的事例" style="text;html=1;strokeColor=none;fillColor=none;align=center;verticalAlign=middle;whiteSpace=wrap;rounded=0;fontSize=16;fontStyle=1;" vertex="1" parent="1">
          <mxGeometry x="50" y="800" width="120" height="30" as="geometry" />
        </mxCell>
        
        <mxCell id="dutch-empire" value="オランダ帝国&#xa;（17世紀）" style="rounded=1;whiteSpace=wrap;html=1;fillColor=#E0F7FA;strokeColor=#006064;strokeWidth=2;fontSize=11;" vertex="1" parent="1">
          <mxGeometry x="50" y="850" width="120" height="50" as="geometry" />
        </mxCell>
        
        <mxCell id="british-empire" value="大英帝国&#xa;（18-19世紀）" style="rounded=1;whiteSpace=wrap;html=1;fillColor=#E0F7FA;strokeColor=#006064;strokeWidth=2;fontSize=11;" vertex="1" parent="1">
          <mxGeometry x="200" y="850" width="120" height="50" as="geometry" />
        </mxCell>
        
        <mxCell id="american-empire" value="アメリカ帝国&#xa;（20世紀-現在）" style="rounded=1;whiteSpace=wrap;html=1;fillColor=#E0F7FA;strokeColor=#006064;strokeWidth=2;fontSize=11;" vertex="1" parent="1">
          <mxGeometry x="350" y="850" width="120" height="50" as="geometry" />
        </mxCell>
        
        <mxCell id="chinese-empire" value="中国帝国&#xa;（現在上昇中）" style="rounded=1;whiteSpace=wrap;html=1;fillColor=#E0F7FA;strokeColor=#006064;strokeWidth=2;fontSize=11;" vertex="1" parent="1">
          <mxGeometry x="500" y="850" width="120" height="50" as="geometry" />
        </mxCell>
        
        <!-- 矢印（上昇期） -->
        <mxCell id="arrow1" style="edgeStyle=orthogonalEdgeStyle;rounded=0;orthogonalLoop=1;jettySize=auto;html=1;strokeColor=#2E7D32;strokeWidth=2;endArrow=classic;" edge="1" parent="1" source="new-order" target="education">
          <mxGeometry relative="1" as="geometry" />
        </mxCell>
        
        <mxCell id="arrow2" style="edgeStyle=orthogonalEdgeStyle;rounded=0;orthogonalLoop=1;jettySize=auto;html=1;strokeColor=#2E7D32;strokeWidth=2;endArrow=classic;" edge="1" parent="1" source="education" target="production">
          <mxGeometry relative="1" as="geometry" />
        </mxCell>
        
        <mxCell id="arrow3" style="edgeStyle=orthogonalEdgeStyle;rounded=0;orthogonalLoop=1;jettySize=auto;html=1;strokeColor=#2E7D32;strokeWidth=2;endArrow=classic;" edge="1" parent="1" source="production" target="trade">
          <mxGeometry relative="1" as="geometry" />
        </mxCell>
        
        <mxCell id="arrow4" style="edgeStyle=orthogonalEdgeStyle;rounded=0;orthogonalLoop=1;jettySize=auto;html=1;strokeColor=#2E7D32;strokeWidth=2;endArrow=classic;" edge="1" parent="1" source="trade" target="military">
          <mxGeometry relative="1" as="geometry" />
        </mxCell>
        
        <mxCell id="arrow5" style="edgeStyle=orthogonalEdgeStyle;rounded=0;orthogonalLoop=1;jettySize=auto;html=1;strokeColor=#2E7D32;strokeWidth=2;endArrow=classic;" edge="1" parent="1" source="military" target="currency">
          <mxGeometry relative="1" as="geometry" />
        </mxCell>
        
        <!-- ピーク期への遷移 -->
        <mxCell id="arrow6" style="edgeStyle=orthogonalEdgeStyle;rounded=0;orthogonalLoop=1;jettySize=auto;html=1;strokeColor=#FBC02D;strokeWidth=2;endArrow=classic;" edge="1" parent="1" source="currency" target="prosperity">
          <mxGeometry relative="1" as="geometry">
            <mxPoint x="1200" y="180" as="sourcePoint" />
            <mxPoint x="1300" y="250" as="targetPoint" />
          </mxGeometry>
        </mxCell>
        
        <mxCell id="arrow7" style="edgeStyle=orthogonalEdgeStyle;rounded=0;orthogonalLoop=1;jettySize=auto;html=1;strokeColor=#FBC02D;strokeWidth=2;endArrow=classic;" edge="1" parent="1" source="prosperity" target="bubble">
          <mxGeometry relative="1" as="geometry" />
        </mxCell>
        
        <!-- 衰退期への遷移 -->
        <mxCell id="arrow8" style="edgeStyle=orthogonalEdgeStyle;rounded=0;orthogonalLoop=1;jettySize=auto;html=1;strokeColor=#7B1FA2;strokeWidth=2;endArrow=classic;" edge="1" parent="1" source="bubble" target="inequality">
          <mxGeometry relative="1" as="geometry">
            <mxPoint x="1250" y="430" as="sourcePoint" />
            <mxPoint x="1150" y="500" as="targetPoint" />
          </mxGeometry>
        </mxCell>
        
        <!-- 衰退期の矢印 -->
        <mxCell id="arrow9" style="edgeStyle=orthogonalEdgeStyle;rounded=0;orthogonalLoop=1;jettySize=auto;html=1;strokeColor=#7B1FA2;strokeWidth=2;endArrow=classic;" edge="1" parent="1" source="inequality" target="competitiveness">
          <mxGeometry relative="1" as="geometry" />
        </mxCell>
        
        <mxCell id="arrow10" style="edgeStyle=orthogonalEdgeStyle;rounded=0;orthogonalLoop=1;jettySize=auto;html=1;strokeColor=#7B1FA2;strokeWidth=2;endArrow=classic;" edge="1" parent="1" source="competitiveness" target="fiscal">
          <mxGeometry relative="1" as="geometry" />
        </mxCell>
        
        <mxCell id="arrow11" style="edgeStyle=orthogonalEdgeStyle;rounded=0;orthogonalLoop=1;jettySize=auto;html=1;strokeColor=#7B1FA2;strokeWidth=2;endArrow=classic;" edge="1" parent="1" source="fiscal" target="printing">
          <mxGeometry relative="1" as="geometry" />
        </mxCell>
        
        <mxCell id="arrow12" style="edgeStyle=orthogonalEdgeStyle;rounded=0;orthogonalLoop=1;jettySize=auto;html=1;strokeColor=#7B1FA2;strokeWidth=2;endArrow=classic;" edge="1" parent="1" source="printing" target="internal-conflict">
          <mxGeometry relative="1" as="geometry" />
        </mxCell>
        
        <mxCell id="arrow13" style="edgeStyle=orthogonalEdgeStyle;rounded=0;orthogonalLoop=1;jettySize=auto;html=1;strokeColor=#7B1FA2;strokeWidth=2;endArrow=classic;" edge="1" parent="1" source="internal-conflict" target="external-challenge">
          <mxGeometry relative="1" as="geometry" />
        </mxCell>
        
        <!-- 転換期への遷移 -->
        <mxCell id="arrow14" style="edgeStyle=orthogonalEdgeStyle;rounded=0;orthogonalLoop=1;jettySize=auto;html=1;strokeColor=#AD1457;strokeWidth=2;endArrow=classic;" edge="1" parent="1" source="external-challenge" target="war">
          <mxGeometry relative="1" as="geometry">
            <mxPoint x="100" y="580" as="sourcePoint" />
            <mxPoint x="100" y="650" as="targetPoint" />
          </mxGeometry>
        </mxCell>
        
        <!-- サイクル完了 -->
        <mxCell id="arrow15" style="edgeStyle=orthogonalEdgeStyle;rounded=0;orthogonalLoop=1;jettySize=auto;html=1;strokeColor=#AD1457;strokeWidth=3;endArrow=classic;dashed=1;" edge="1" parent="1" source="war" target="new-order">
          <mxGeometry relative="1" as="geometry">
            <mxPoint x="50" y="680" as="sourcePoint" />
            <mxPoint x="50" y="130" as="targetPoint" />
            <Array as="points">
              <mxPoint x="20" y="680" />
              <mxPoint x="20" y="130" />
            </Array>
          </mxGeometry>
        </mxCell>
        
        <!-- 凡例 -->
        <mxCell id="legend-title" value="凡例" style="text;html=1;strokeColor=none;fillColor=none;align=center;verticalAlign=middle;whiteSpace=wrap;rounded=0;fontSize=16;fontStyle=1;" vertex="1" parent="1">
          <mxGeometry x="800" y="800" width="60" height="30" as="geometry" />
        </mxCell>
        
        <mxCell id="legend-rise" value="上昇期" style="rounded=1;whiteSpace=wrap;html=1;fillColor=#E8F5E9;strokeColor=#2E7D32;strokeWidth=2;fontSize=12;" vertex="1" parent="1">
          <mxGeometry x="800" y="850" width="80" height="30" as="geometry" />
        </mxCell>
        
        <mxCell id="legend-peak" value="ピーク期" style="rounded=1;whiteSpace=wrap;html=1;fillColor=#FFFDE7;strokeColor=#FBC02D;strokeWidth=2;fontSize=12;" vertex="1" parent="1">
          <mxGeometry x="900" y="850" width="80" height="30" as="geometry" />
        </mxCell>
        
        <mxCell id="legend-decline" value="衰退期" style="rounded=1;whiteSpace=wrap;html=1;fillColor=#F3E5F5;strokeColor=#7B1FA2;strokeWidth=2;fontSize=12;" vertex="1" parent="1">
          <mxGeometry x="1000" y="850" width="80" height="30" as="geometry" />
        </mxCell>
        
        <mxCell id="legend-transition" value="転換期" style="rounded=1;whiteSpace=wrap;html=1;fillColor=#FCE4EC;strokeColor=#AD1457;strokeWidth=2;fontSize=12;" vertex="1" parent="1">
          <mxGeometry x="1100" y="850" width="80" height="30" as="geometry" />
        </mxCell>
        
        <mxCell id="legend-examples" value="歴史的事例" style="rounded=1;whiteSpace=wrap;html=1;fillColor=#E0F7FA;strokeColor=#006064;strokeWidth=2;fontSize=12;" vertex="1" parent="1">
          <mxGeometry x="1200" y="850" width="80" height="30" as="geometry" />
        </mxCell>
        
        <!-- タイトル -->
        <mxCell id="main-title" value="帝国の興亡サイクル - ビッグサイクル理論" style="text;html=1;strokeColor=none;fillColor=none;align=center;verticalAlign=middle;whiteSpace=wrap;rounded=0;fontSize=20;fontStyle=1;" vertex="1" parent="1">
          <mxGeometry x="600" y="10" width="400" height="30" as="geometry" />
        </mxCell>
        
        <!-- 補足説明 -->
        <mxCell id="note" value="※ 約250年周期で繰り返される帝国の興亡パターン&#xa;※ オランダ→英国→米国→中国の順で覇権が移行" style="text;html=1;strokeColor=none;fillColor=none;align=left;verticalAlign=top;whiteSpace=wrap;rounded=0;fontSize=11;fontStyle=2;" vertex="1" parent="1">
          <mxGeometry x="800" y="950" width="300" height="40" as="geometry" />
        </mxCell>
        
      </root>
    </mxGraphModel>
  </diagram>
</mxfile> 